<svg xmlns="http://www.w3.org/2000/svg" xmlns:xlink="http://www.w3.org/1999/xlink" width="265.625" height="196.474" viewBox="0 0 265.625 196.474">
  <defs>
    <linearGradient id="linear-gradient" y1="0.5" x2="1" y2="0.5" gradientUnits="objectBoundingBox">
      <stop offset="0" stop-color="#888"/>
      <stop offset="1" stop-color="#e8e8e8"/>
    </linearGradient>
    <filter id="Path_518" x="0" y="0" width="265.625" height="196.474" filterUnits="userSpaceOnUse">
      <feOffset dy="1" input="SourceAlpha"/>
      <feGaussianBlur stdDeviation="1.5" result="blur"/>
      <feFlood flood-opacity="0.302"/>
      <feComposite operator="in" in2="blur"/>
      <feComposite in="SourceGraphic"/>
    </filter>
    <linearGradient id="linear-gradient-2" x1="0.417" y1="0.617" x2="0.766" y2="-0.052" gradientUnits="objectBoundingBox">
      <stop offset="0" stop-color="#fff" stop-opacity="0.302"/>
      <stop offset="1" stop-color="#fff" stop-opacity="0"/>
    </linearGradient>
  </defs>
  <g id="Group_258" data-name="Group 258" transform="translate(4.5 3.5)">
    <g transform="matrix(1, 0, 0, 1, -4.5, -3.5)" filter="url(#Path_518)">
      <path id="Path_518-2" data-name="Path 518" d="M882.208,524.618H665.437V684.249c64.209,76.3,129.869-35.211,256.625,26.41V559.244C922.063,540.12,904.218,524.618,882.208,524.618Z" transform="translate(-660.94 -521.12)" fill="url(#linear-gradient)"/>
    </g>
    <path id="Path_519" data-name="Path 519" d="M665.437,575.988c24.734,33.252,68.557,60.94,123.168,73.679,47.872,11.169,95.173,8.763,133.457-4.13V559.244c0-19.124-17.844-34.626-39.854-34.626H665.437Z" transform="translate(-665.437 -524.618)" opacity="0.3" fill="url(#linear-gradient-2)"/>
  </g>
</svg>
