<svg xmlns="http://www.w3.org/2000/svg" width="12.898" height="19" viewBox="0 0 12.898 19">
  <g id="Group_257" data-name="Group 257" transform="translate(-2979.88 -1134.682)">
    <path id="Path_516" data-name="Path 516" d="M195.413,250.759a3.6,3.6,0,0,0,1.722.839,20.283,20.283,0,0,0,5.838,0,3.6,3.6,0,0,0,1.67-.792c.077.02.566-.467.593-.592a4.266,4.266,0,0,0,.995-2.375q.065-.912.131-1.806.072-.987.144-1.952a2.773,2.773,0,0,0-.762-2,2.665,2.665,0,0,0-1.316-.806,20.307,20.307,0,0,0-8.719,0,2.694,2.694,0,0,0-1.328.809,2.757,2.757,0,0,0-.764,1.995q.072.971.144,1.959.065.895.131,1.8a4.274,4.274,0,0,0,.973,2.352m8.01.732a19.614,19.614,0,0,1-5.627,0,3.546,3.546,0,0,1-2.675-3.132q-.138-1.918-.274-3.759a2.162,2.162,0,0,1,1.557-2.092,19.608,19.608,0,0,1,8.413,0,2.163,2.163,0,0,1,1.556,2.092q-.137,1.84-.274,3.759a3.546,3.546,0,0,1-2.675,3.132Z" transform="translate(2786.268 901.872)" fill="#e8e8e8"/>
    <path id="Path_517" data-name="Path 517" d="M297.018,120.386a3.656,3.656,0,1,0-3.656-3.656A3.66,3.66,0,0,0,297.018,120.386Zm0-6.628a2.973,2.973,0,1,1-2.973,2.973A2.973,2.973,0,0,1,297.018,113.758Z" transform="translate(2689.312 1021.608)" fill="#e8e8e8"/>
  </g>
</svg>
