<svg xmlns="http://www.w3.org/2000/svg" width="27.061" height="20.926" viewBox="0 0 27.061 20.926">
  <g id="Group_251" data-name="Group 251" transform="translate(-76.725 -472.418)">
    <path id="Path_514" data-name="Path 514" d="M420.922,167.224a3.259,3.259,0,1,0-3.259-3.259A3.263,3.263,0,0,0,420.922,167.224Zm0-5.766a2.507,2.507,0,1,1-2.507,2.507A2.506,2.506,0,0,1,420.922,161.458Z" transform="translate(-322.748 314.994)" fill="#e8e8e8"/>
    <path id="Path_516" data-name="Path 516" d="M159.286,242.425a17.32,17.32,0,0,0-3.708.4,2.592,2.592,0,0,0-1.9,2.548l.068.925c.2,2.629,2.462,5.639,5.384,5.76h.159a17.338,17.338,0,0,0,2.48-.179,2.8,2.8,0,0,0,.437-.113,3.959,3.959,0,0,0,1.9.924,22.339,22.339,0,0,0,6.43,0,3.964,3.964,0,0,0,1.84-.872c.084.022.168.042.254.056a17.386,17.386,0,0,0,2.5.181h.159c2.922-.12,5.182-3.13,5.384-5.757l.068-.919a2.591,2.591,0,0,0-1.886-2.552,17.347,17.347,0,0,0-3.723-.406v.753a16.561,16.561,0,0,1,3.547.385,1.824,1.824,0,0,1,1.313,1.764q-.034.456-.068.918c-.173,2.262-2.179,4.961-4.664,5.063h-.128a16.516,16.516,0,0,1-2.1-.136,4.7,4.7,0,0,0,1.1-2.616q.072-1,.144-1.989.079-1.087.158-2.15a3.054,3.054,0,0,0-.839-2.2,2.935,2.935,0,0,0-1.449-.887,22.364,22.364,0,0,0-9.6,0,2.967,2.967,0,0,0-1.462.891,3.036,3.036,0,0,0-.842,2.2q.079,1.069.159,2.158.072.985.144,1.987a4.708,4.708,0,0,0,1.071,2.59,16.5,16.5,0,0,1-2.312.164h-.128c-2.485-.1-4.49-2.8-4.664-5.063q-.034-.462-.068-.918a1.823,1.823,0,0,1,1.313-1.764,16.54,16.54,0,0,1,3.547-.385m11.135,8.771a21.6,21.6,0,0,1-6.2,0,3.906,3.906,0,0,1-2.946-3.449q-.152-2.112-.3-4.14a2.381,2.381,0,0,1,1.715-2.3,21.6,21.6,0,0,1,9.265,0,2.382,2.382,0,0,1,1.714,2.3q-.151,2.026-.3,4.14a3.906,3.906,0,0,1-2.946,3.449Z" transform="translate(-76.945 240.418)" fill="#e8e8e8"/>
    <path id="Path_517" data-name="Path 517" d="M297.389,121.127a4.027,4.027,0,1,0-4.027-4.027A4.031,4.031,0,0,0,297.389,121.127Zm0-7.3a3.274,3.274,0,1,1-3.274,3.274A3.274,3.274,0,0,1,297.389,113.827Z" transform="translate(-207.011 359.344)" fill="#e8e8e8"/>
    <path id="Path_515" data-name="Path 515" d="M191.122,167.224a3.259,3.259,0,1,0-3.259-3.259A3.263,3.263,0,0,0,191.122,167.224Zm0-5.766a2.507,2.507,0,1,1-2.507,2.507A2.506,2.506,0,0,1,191.122,161.458Z" transform="translate(-108.781 314.994)" fill="#e8e8e8"/>
  </g>
</svg>
