<svg xmlns="http://www.w3.org/2000/svg" width="82" height="29.966" viewBox="0 0 82 29.966">
  <g id="Group_148" data-name="Group 148" transform="translate(-38.356 -66.591)">
    <path id="Path_10" data-name="Path 10" d="M38.356,66.591h3.356v26.28H57.141v3.373H38.356Z" transform="translate(0)" fill="#fff"/>
    <path id="Path_11" data-name="Path 11" d="M136.486,98.955h-3.767L122.386,77.8,112.1,98.955h-3.822l14.057-28.772Z" transform="translate(-46.664 -2.397)" fill="#fff"/>
    <path id="Path_12" data-name="Path 12" d="M224.5,92.478c-.148-.1-.292-.2-.434-.311l-.133-.1c-.147-.119-.293-.241-.434-.37l-.037-.035q-.229-.214-.447-.442l-.013-.014q-.232-.245-.451-.506h0c-.056-.067-.113-.133-.168-.2-.017-.015-.032-.032-.049-.048a11.179,11.179,0,0,1-15.364-.416,11.366,11.366,0,0,1-3.161-8.181,12.065,12.065,0,0,1,1.415-5.846,10.9,10.9,0,0,1,9.559-5.663,11.036,11.036,0,0,1,5.061,1.172,10.5,10.5,0,0,1,2.2,1.509l.225-.241h0l.537-.579q.285-.306.573-.607c.169-.177.34-.351.514-.523s.324-.32.492-.475a13.381,13.381,0,0,0-2.925-2.068,14.357,14.357,0,0,0-6.712-1.564A13.719,13.719,0,0,0,204.507,71.2a14.461,14.461,0,0,0-4.086,10.409,15.47,15.47,0,0,0,3.371,10.023,13.492,13.492,0,0,0,10.994,4.936,14.821,14.821,0,0,0,6.626-1.467,13.568,13.568,0,0,0,3.424-2.415c-.113-.065-.224-.134-.333-.206" transform="translate(-108.165 -0.251)" fill="#fff"/>
    <path id="Path_13" data-name="Path 13" d="M278.05,71.878h-.4v-.143h.97v.143h-.4v1.167h-.17Z" transform="translate(-159.708 -3.433)" fill="#fff"/>
    <path id="Path_14" data-name="Path 14" d="M282.026,72.47c-.01-.182-.022-.4-.021-.565H282c-.045.152-.1.317-.165.5l-.232.636h-.127l-.214-.624c-.062-.185-.113-.353-.15-.508h0c0,.163-.013.381-.026.578l-.035.562h-.161l.091-1.31h.216l.223.634c.054.16.1.3.132.441h.005c.034-.133.08-.277.138-.441l.234-.634h.217l.081,1.31h-.166Z" transform="translate(-161.869 -3.433)" fill="#fff"/>
  </g>
</svg>
