<svg xmlns="http://www.w3.org/2000/svg" width="124" height="45.315" viewBox="0 0 124 45.315">
  <g id="Group_143" data-name="Group 143" transform="translate(-38.356 -66.591)">
    <path id="Path_10" data-name="Path 10" d="M38.356,66.591H43.43v39.741H66.763v5.1H38.356Z" transform="translate(0)" fill="#fff"/>
    <path id="Path_11" data-name="Path 11" d="M150.936,113.692h-5.7L129.613,81.7l-15.559,31.993h-5.78l21.257-43.509Z" transform="translate(-34.754 -1.786)" fill="#fff"/>
    <path id="Path_12" data-name="Path 12" d="M236.839,105.545c-.224-.147-.442-.305-.656-.47l-.2-.157c-.223-.18-.443-.364-.656-.56l-.056-.052q-.346-.323-.675-.669l-.02-.021q-.352-.371-.682-.765h0c-.085-.1-.171-.2-.254-.3-.026-.023-.048-.049-.073-.072a16.9,16.9,0,0,1-23.234-.629,17.187,17.187,0,0,1-4.78-12.372,18.244,18.244,0,0,1,2.139-8.84,16.477,16.477,0,0,1,14.454-8.563,16.689,16.689,0,0,1,7.654,1.772,15.871,15.871,0,0,1,3.326,2.282l.34-.365,0,0q.408-.439.812-.876.431-.463.867-.918c.255-.268.515-.531.777-.791.245-.242.49-.484.744-.718a20.235,20.235,0,0,0-4.423-3.128,21.71,21.71,0,0,0-10.15-2.365,20.745,20.745,0,0,0-15.491,6.4,21.867,21.867,0,0,0-6.18,15.741,23.394,23.394,0,0,0,5.1,15.157c4.045,4.953,9.638,7.464,16.626,7.464a22.413,22.413,0,0,0,10.02-2.218,20.518,20.518,0,0,0,5.178-3.652c-.171-.1-.338-.2-.5-.311" transform="translate(-80.557 -0.187)" fill="#fff"/>
    <path id="Path_13" data-name="Path 13" d="M278.254,71.951h-.6v-.216h1.467v.216h-.606v1.765h-.257Z" transform="translate(-118.945 -2.557)" fill="#fff"/>
    <path id="Path_14" data-name="Path 14" d="M282.61,72.846c-.015-.275-.033-.61-.031-.854h-.009c-.068.23-.15.479-.249.751l-.351.961h-.193l-.323-.944c-.094-.28-.171-.534-.227-.768h-.007c-.007.247-.02.577-.039.874l-.053.85h-.243l.138-1.981h.327l.337.959c.081.242.148.461.2.667h.008c.052-.2.121-.419.209-.667l.354-.959h.327l.123,1.981h-.251Z" transform="translate(-120.553 -2.557)" fill="#fff"/>
  </g>
</svg>
