<svg xmlns="http://www.w3.org/2000/svg" width="29.991" height="19.667" viewBox="0 0 29.991 19.667">
  <path id="Path_509" data-name="Path 509" d="M15,81.257c-.827,1.551-3,1.861-5.481,1.758-3.1-.1-6.412-.827-9.514-.31,1.138-2.378,2.275-3.826,4.861-4.343-2.482-2.9-1.448-5.895-2.792-8.48a13.058,13.058,0,0,1,4.033.414,19.033,19.033,0,0,1,.517-4.24c.621.621,1.241,1.138,1.861,1.655A6.464,6.464,0,0,1,10.445,64.5a6.773,6.773,0,0,1,1.861,1.551A13.25,13.25,0,0,1,15,63.366a13.247,13.247,0,0,1,2.689,2.689A6.773,6.773,0,0,1,19.546,64.5a7.571,7.571,0,0,1,1.965,3.1c.31-.207.621-.517.827-.621a3.938,3.938,0,0,0,.621-.517l.414-.414.1.621a15.55,15.55,0,0,1,.414,3.62,13.058,13.058,0,0,1,4.033-.414c-1.551,2.585-.1,5.378-2.792,8.48,2.585.517,3.723,1.965,4.861,4.343-3.309-.621-6.2.207-9.514.31-2.482.1-4.654-.207-5.481-1.758Zm3.62-9.721A11.539,11.539,0,0,0,15,67.4a11.54,11.54,0,0,0-3.62,4.137A10.742,10.742,0,0,1,15,75.672,10.741,10.741,0,0,1,18.615,71.536Zm.621-.414A12.857,12.857,0,0,1,21.3,70.088a5.55,5.55,0,0,1,1.861,1.448,18.2,18.2,0,0,0-.207-4.137l-.207.1a13.569,13.569,0,0,0-3.62,3.413l.1.207Zm4.55,1.344c1.241,2.689-1.034,6-3.309,7.446a8.117,8.117,0,0,0,2.275-.517c3.826-1.758,3.413-5.791,4.033-8.79a9.341,9.341,0,0,0-2.9.414c0,.414-.1.931-.1,1.448Zm-4.447,8.067a8.561,8.561,0,0,1-3.62.517c.724,1.138,2.585,1.344,4.757,1.344,2.689,0,5.584-.724,8.273-.517a5.113,5.113,0,0,0-4.24-2.9,6.382,6.382,0,0,1-5.171,1.551Zm-4.964-.207a9.072,9.072,0,0,1,.207-3.723c-.931-2.689-3.309-4.55-5.895-5.791-5.274,3.1.517,10.445,5.688,9.514Zm.621-.1c5.378,1.551,11.789-6.205,6.308-9.411C17.788,72.466,14.168,75.982,15,80.222Zm-.724.827a8.562,8.562,0,0,1-3.62-.517,6.5,6.5,0,0,1-5.171-1.551,5.113,5.113,0,0,0-4.24,2.9c2.585-.207,5.584.414,8.273.517,1.448,0,3.826,0,4.757-1.344ZM9.514,79.912c-2.275-1.551-4.55-4.654-3.309-7.446,0-.517-.1-1.034-.1-1.448a9.341,9.341,0,0,0-2.9-.414c.621,3.1.31,7.032,4.033,8.79a8.118,8.118,0,0,0,2.275.517ZM6.826,71.535a6.44,6.44,0,0,1,1.861-1.448,19.307,19.307,0,0,1,2.068,1.034l.1-.207A13.874,13.874,0,0,0,7.033,67.4a18.2,18.2,0,0,0-.207,4.137Zm4.447-1.241a6.772,6.772,0,0,1,1.551-1.861,6.763,6.763,0,0,0-2.275-3.1,6.4,6.4,0,0,0-1.448,2.9,10.31,10.31,0,0,1,2.172,2.068Zm2.068-2.378A10.441,10.441,0,0,1,15,66.572a10.442,10.442,0,0,1,1.655,1.344,6.886,6.886,0,0,1,.621-1.241A8.316,8.316,0,0,0,15,64.3a8.315,8.315,0,0,0-2.275,2.378,6.889,6.889,0,0,1,.621,1.241Zm3.826.517a6.772,6.772,0,0,1,1.551,1.861,14.375,14.375,0,0,1,2.172-2.172,7.219,7.219,0,0,0-1.448-2.792,6.761,6.761,0,0,0-2.275,3.1Z" transform="translate(0 -63.366)" fill="#e8e8e8"/>
</svg>
